<svg fill="none" height="20" viewBox="0 0 22 20" width="22" xmlns="http://www.w3.org/2000/svg"><g stroke="#5a3d8b" stroke-linecap="round" stroke-linejoin="round"><path d="m3 15.2192c0 2.2092 1.75326 4 3.91602 4 1.77397 0 3.27248-1.2048 3.75388-2.8571h4.19c.422 0 .4476.0261.4476.4571v1.2572c0 .5387 0 .8081.1638.9755.1639.1673.4276.1673.955.1673h.7611c.4391 0 .6586 0 .8133-.1295s.1977-.3494.2838-.7892l.3076-1.5709c.0689-.3518.0876-.3675.4389-.3675h.7519c.5275 0 .7912 0 .955-.1674.3666-.3744.3319-2.1834 0-2.5224-.1638-.1673-.4275-.1673-.955-.1673h-9.3277c-.62852-1.3514-1.97703-2.2858-3.53918-2.2858-2.16276 0-3.91602 1.7909-3.91602 4z"/><path d="m7.00896 15.2192h-.00896"/><path d="m18 10.7192v-3.49996c0-2.82843 0-4.24264-.8787-5.12132s-2.2929-.87868-5.1213-.87868h-5c-2.82843 0-4.24264 0-5.12132.87868s-.87868 2.29289-.87868 5.12132v4.99996"/></g></svg>