<svg fill="none" height="24" viewBox="0 0 24 24" width="24" xmlns="http://www.w3.org/2000/svg"><g stroke="#5a3d8b" stroke-linecap="round" stroke-linejoin="round"><path d="m5.50317 15.9877 2.5256-6.96285c.45927-.96653 1.16159-1.76589 1.96631.15124.74282 1.76971 1.85112 5.01031 2.50532 6.81541m-5.8497-2.9934h4.6681"/><path d="m3.46136 4.31802c-1.46447 1.31802-1.46447 3.43934-1.46447 7.68198 0 4.2426 0 6.364 1.46447 7.682 1.46446 1.318 3.82149 1.318 8.53554 1.318 4.714 0 7.0711 0 8.5355-1.318 1.4645-1.318 1.4645-3.4394 1.4645-7.682 0-4.24264 0-6.36396-1.4645-7.68198-1.4644-1.31802-3.8215-1.31802-8.5355-1.31802-4.71405 0-7.07108 0-8.53554 1.31802z"/><path d="m18.4839 8.99023v2.99467m0 0v3.9437m0-3.9437h-2.0183c-.2397 0-.4775.0446-.7015.1315-1.6938.6572-1.6938 3.0994 0 3.7566.224.0869.4618.1315.7015.1315h2.0183"/></g></svg>