<svg fill="none" height="13" viewBox="0 0 8 13" width="8" xmlns="http://www.w3.org/2000/svg"><path d="m7.33447 6.31553c0-.11779-.02128-.22653-.06384-.32621-.04729-.09967-.11823-.19482-.21282-.28543l-5.5261-5.178628c-.16079-.154045-.35469-.231067-.581694-.231067-.156064 0-.295577.036246-.418536.108738-.12769.067961-.229368.163106-.305036.285436-.075667.117799-.113501.249189-.113501.394171 0 .21748.087491.41003.262472.57767l4.979875 4.65532-4.979875 4.65537c-.174981.1676-.262472.3579-.262472.5708 0 .1495.037834.2832.113501.401.075668.1178.177346.2107.305036.2786.122959.0725.262472.1088.418536.1088.227004 0 .420904-.0748.581694-.2243l5.5261-5.17862c.09459-.09061.16553-.18576.21282-.28543.04256-.09968.06384-.20842.06384-.32622z" fill="#575758"/></svg>