<svg fill="none" height="22" viewBox="0 0 22 22" width="22" xmlns="http://www.w3.org/2000/svg"><g clip-rule="evenodd" fill="#1c1c1c" fill-rule="evenodd"><path d="m4.83078 8.16797c0-3.41386 2.77364-6.1875 6.18752-6.1875 3.4047 0 6.1875 2.7828 6.1875 6.1875v2.64913c0 .197.0446.4853.129.7933.0835.3043.1913.5748.2894.7465l1.0511 1.7457c.8301 1.3835.1665 3.1857-1.3627 3.6919-4.0919 1.3669-8.50696 1.3668-12.59885-.0003l-.00255-.0009c-.77221-.2613-1.35132-.8017-1.61025-1.501-.25923-.7001-.17104-1.4881.25158-2.1904l1.05272-1.7485c.00023-.0004.00047-.0008.0007-.0011.10038-.1688.21034-.4383.29519-.744.08511-.3066.12964-.5944.12964-.7912zm6.18752-4.8125c-2.65449 0-4.81252 2.15803-4.81252 4.8125v2.64913c0 .3625-.07464.7804-.17974 1.159-.10516.3788-.25614.7734-.43974 1.0814l-.00154.0026-1.05406 1.7507c-.00004 0 .00003-.0001 0 0-.22812.3792-.24085.7325-.14031 1.0041.10077.2721.3417.5335.76041.6756 3.80906 1.2723 7.9181 1.2722 11.7271-.0004l.0021-.0007c.6882-.2275.9958-1.0461.6165-1.6789-.0001-.0002.0001.0002 0 0l-1.0605-1.7614c-.1761-.3052-.3236-.6971-.4272-1.075-.1034-.3772-.178-.7948-.178-1.157v-2.64913c0-2.64531-2.1672-4.8125-4.8125-4.8125z"/><path d="m8.6823 2.68247c.36616-.93434 1.27522-1.59165 2.3359-1.59165 1.0608 0 1.9698.65731 2.336 1.59165.0956.2439.0442.52092-.1324.71439-.1766.19346-.4478.26974-.6994.1967-.2543-.07383-.5109-.12954-.7711-.16107l-.0025-.00031c-.7924-.09905-1.5411-.04026-2.23449.16131-.25159.07314-.52287-.00308-.69956-.19655-.17668-.19346-.22805-.47053-.13245-.71447z"/><path d="m8.95581 17.4717c0 .5615.23357 1.0854.6053 1.4572.37173.3717.89569.6053 1.45719.6053 1.1328 0 2.0625-.9297 2.0625-2.0625h1.375c0 1.8922-1.5453 3.4375-3.4375 3.4375-.9418 0-1.81119-.3898-2.42946-1.0081-.61827-.6182-1.00803-1.4876-1.00803-2.4294z"/></g></svg>