<svg fill="none" height="17" viewBox="0 0 17 17" width="17" xmlns="http://www.w3.org/2000/svg"><g stroke="#1b609d" stroke-linecap="round" stroke-linejoin="round" stroke-width="1.125"><path d="m6.63916 10.8193c0-1.88556 0-2.82836.58579-3.41418.58581-.58578 1.52861-.58578 3.41425-.58578h.6666c1.8856 0 2.8284 0 3.4142.58578.5858.58582.5858 1.52862.5858 3.41418v.6667c0 1.8856 0 2.8284-.5858 3.4142s-1.5286.5858-3.4142.5858h-.6666c-1.88564 0-2.82844 0-3.41425-.5858-.58579-.5858-.58579-1.5286-.58579-3.4142z"/><path d="m11.9731 6.81999c-.0016-1.9714-.0314-2.99253-.6053-3.69172-.1108-.13502-.2346-.25883-.3696-.36964-.7376-.60531-1.83339-.60531-4.02506-.60531-2.19165 0-3.28748 0-4.02504.60531-.13503.1108-.25884.23462-.36965.36964-.60531.73757-.60531 1.8334-.60531 4.02505 0 2.19167 0 3.28748.60531 4.02508.11081.135.23462.2588.36965.3696.69918.5739 1.72032.6037 3.69171.6053"/></g></svg>