<svg fill="none" height="17" viewBox="0 0 5 17" width="5" xmlns="http://www.w3.org/2000/svg"><path d="m2.6084 16.9727c-.55 0-1.02067-.1957-1.412-.587-.392001-.392-.588002-.863-.588002-1.413s.196001-1.021.588002-1.413c.39133-.3914.862-.587 1.412-.587s1.021.1956 1.413.587c.39133.392.587.863.587 1.413s-.19567 1.021-.587 1.413c-.392.3913-.863.587-1.413.587zm0-6c-.55 0-1.02067-.196-1.412-.588-.392001-.39138-.588002-.86204-.588002-1.41204s.196001-1.021.588002-1.413c.39133-.39134.862-.587 1.412-.587s1.021.19566 1.413.587c.39133.392.587.863.587 1.413s-.19567 1.02066-.587 1.41204c-.392.392-.863.588-1.413.588zm0-6.00004c-.55 0-1.02067-.196-1.412-.588-.392001-.39134-.588002-.862-.588002-1.412s.196001-1.02067.588002-1.412c.39133-.392.862-.588004 1.412-.588004s1.021.196004 1.413.588004c.39133.39133.587.862.587 1.412s-.19567 1.02066-.587 1.412c-.392.392-.863.588-1.413.588z" fill="#1b609d"/></svg>