<svg fill="none" height="24" viewBox="0 0 24 24" width="24" xmlns="http://www.w3.org/2000/svg"><g fill="#1b609d"><path d="m19.5 12c0-.1989.079-.3897.2197-.5303.1406-.1407.3314-.2197.5303-.2197s.3897.079.5303.2197c.1407.1406.2197.3314.2197.5303v8.25c0 .1989-.079.3897-.2197.5303-.1406.1407-.3314.2197-.5303.2197h-16.5c-.19891 0-.38968-.079-.53033-.2197-.14065-.1406-.21967-.3314-.21967-.5303v-16.5c0-.19891.07902-.38968.21967-.53033s.33142-.21967.53033-.21967h8.25c.1989 0 .3897.07902.5303.21967.1407.14065.2197.33142.2197.53033s-.079.38968-.2197.53033c-.1406.14065-.3314.21967-.5303.21967h-7.5v15h15z"/><path d="m11.0145 12.9899 1.2375-.177 7.602-7.60051c.0716-.06919.1287-.15195.1681-.24345.0393-.0915.0599-.18992.0608-.2895.0009-.09959-.0181-.19835-.0558-.29052s-.0934-.17591-.1638-.24633-.1542-.12611-.2464-.16382c-.0921-.03771-.1909-.05669-.2905-.05582-.0996.00086-.198.02155-.2895.06086s-.1742.09644-.2434.16808l-7.6035 7.60051-.177 1.2375zm9.9-9.90001c.2091.20895.3749.45705.4881.73013.1132.27307.1714.56577.1714.86137 0 .29559-.0582.58829-.1714.86137-.1132.27307-.279.52118-.4881.73013l-7.7775 7.77751c-.1147.1151-.2637.1898-.4245.213l-2.475.354c-.1154.0166-.233.006-.34355-.0308-.11056-.0368-.21102-.0989-.29342-.1813s-.14446-.1828-.18127-.2934-.04735-.2282-.03078-.3435l.354-2.475c.02272-.1607.09694-.3096.2115-.4245l7.77902-7.77751c.4219-.42181.9941-.65877 1.5907-.65877s1.1688.23696 1.5908.65877z"/></g></svg>