<svg fill="none" height="34" viewBox="0 0 28 34" width="28" xmlns="http://www.w3.org/2000/svg"><g fill="#1b609d"><path d="m17.3338 3.66309h-13.33331v26.66661h20.00001v-19.9999h-6.6667zm3.3334 11.66671v6.6666c0 3.6833-2.9834 6.6667-6.6667 6.6667s-6.66668-2.9834-6.66668-6.6667v-9.1666c0-2.3 1.86667-4.16672 4.16668-4.16672 2.3 0 4.1667 1.86672 4.1667 4.16672v9.1666h-3.3334v-9.1666c0-.4667-.3666-.8334-.8333-.8334s-.8333.3667-.8333.8334v9.1666c0 1.8334 1.5 3.3333 3.3333 3.3333s3.3333-1.4999 3.3333-3.3333v-6.6666z" opacity=".3"/><path d="m17.3335 21.9964c0 1.8334-1.5 3.3334-3.3333 3.3334-1.8334 0-3.3334-1.5-3.3334-3.3334v-9.1666c0-.4667.3667-.8334.8334-.8334.4666 0 .8333.3667.8333.8334v9.1666h3.3333v-9.1666c0-2.3-1.8666-4.16671-4.1666-4.16671-2.30004 0-4.1667 1.86671-4.1667 4.16671v9.1666c0 3.6834 2.9833 6.6667 6.6667 6.6667 3.6833 0 6.6666-2.9833 6.6666-6.6667v-6.6666h-3.3333z"/><path d="m17.3341.332031h-13.33329c-1.83333 0-3.33333 1.499999-3.33333 3.333329v26.66664c0 1.8334 1.5 3.3334 3.33333 3.3334h19.99999c1.8333 0 3.3333-1.5 3.3333-3.3334v-20zm6.6667 29.999969h-19.99999v-26.66664h13.33329v6.66664h6.6667z"/></g></svg>