<svg fill="none" height="33" viewBox="0 0 32 33" width="32" xmlns="http://www.w3.org/2000/svg" xmlns:xlink="http://www.w3.org/1999/xlink"><linearGradient id="a" gradientUnits="userSpaceOnUse" x1="15.5034" x2="17.1565" y1="11.1919" y2="26.1209"><stop offset="0" stop-color="#123214"/><stop offset=".46" stop-color="#3e7c37"/><stop offset=".91" stop-color="#5fbb46"/></linearGradient><linearGradient id="b" gradientUnits="userSpaceOnUse" x1="25.0537" x2="25.0537" y1="10.2207" y2="22.2928"><stop offset="0" stop-color="#fff" stop-opacity="0"/><stop offset=".64" stop-color="#fff" stop-opacity=".43"/><stop offset="1" stop-color="#fff" stop-opacity=".42"/></linearGradient><radialGradient id="c" cx="0" cy="0" gradientTransform="matrix(5.67290541 2.860696 -1.19142911 2.36266441 20.5448 8.03879)" gradientUnits="userSpaceOnUse" r="1"><stop offset=".13" stop-color="#fff"/><stop offset=".29" stop-color="#fff" stop-opacity=".69"/><stop offset=".45" stop-color="#fff" stop-opacity=".4"/><stop offset=".59" stop-color="#fff" stop-opacity=".18"/><stop offset=".69" stop-color="#fff" stop-opacity=".05"/><stop offset=".74" stop-color="#fff" stop-opacity="0"/></radialGradient><radialGradient id="d" cx="0" cy="0" gradientTransform="matrix(10.93230189 9.12138829 -9.94231195 11.91620752 18.2674 13.7228)" gradientUnits="userSpaceOnUse" r="1"><stop offset=".86" stop-opacity="0"/><stop offset=".98" stop-opacity=".47"/><stop offset="1"/></radialGradient><path d="m16.0794 29.5398c7.1009 0 12.8573-5.7564 12.8573-12.8573s-5.7564-12.8573-12.8573-12.8573c-7.10083 0-12.85723 5.7564-12.85723 12.8573s5.7564 12.8573 12.85723 12.8573z" fill="#50b651"/><g clip-rule="evenodd" fill-rule="evenodd"><path d="m28.8976 16.647c0 7.1232-5.7744 12.8976-12.896 12.8976s-12.8976-5.7744-12.8976-12.8976c0-3.1511.08832-3.6195 1.32864-5.4135 0 0-.064 2.0263 1.42176 3.232.92384.7492 1.888.2084 3.6528-.6044 1.9091-.88 3.4611-1.4477 4.672-1.298 1.824.226 7.4461 3.6023 10.3802 2.93 2.344-.536 2.0966-6.06244 2.0966-6.06244 2.56 2.49984 2.2416 4.18944 2.2416 7.21634z" fill="url(#a)" opacity=".663"/><path d="m21.5361 26.1198c4.6646-4.3876 5.4399-9.4142 2.3261-15.0797.0158.0116.2084-.6532.5779-1.9942 1.6572 2.0068 2.5384 4.4838 2.6436 7.431-.0009 3.8174-1.8501 7.0317-5.5476 9.6429z" fill="url(#b)" opacity=".586"/><path d="m19.3234 9.07293c-2.2515-1.24608-4.8346-3.75264-4.4912-4.27904.3433-.5264 4.8-.43584 7.0518.81024s4.1683 4.98397 3.8253 5.51037c-.3431.5264-4.1344-.7955-6.3859-2.04157z" fill="url(#c)" opacity=".744"/><path d="m21.2849 19.8491c-1.8678 0-3.3821-1.5575-3.3821-3.4784 0-1.921 1.5143-3.4781 3.3821-3.4781 1.8679 0 3.3824 1.5571 3.3824 3.4781 0 1.9209-1.5142 3.4784-3.3824 3.4784zm.024-1.1034c1.1658 0 2.112-1.0634 2.112-2.375 0-1.3117-.9462-2.3741-2.112-2.3741-1.1657 0-2.112 1.0633-2.112 2.3747s.9463 2.3744 2.112 2.3744z" fill="#fff"/><path d="m14.3066 10.0918h2.4372v9.7184h-1.338v-8.6525h-1.0992z" fill="#fff"/><path d="m12.49 12.9914h1.265v8.1159c0 .7395-.778 1.5097-1.536 1.8413-.3584.1565-1.0198.2496-1.984.279v-.8074c.9431-.1051 1.5797-.315 1.9097-.6294.1905-.2646.3095-.5739.3456-.8979v-2.3843c-.3381.7174-.7639 1.193-1.2774 1.4268-.5338.288-1.62017.2407-2.06369 0-.44352-.2406-1.09408-.8742-1.39232-1.8179-.08256-.2605-.288-.9693-.26656-1.7203.0192-.7152.256-1.472.4528-1.783.33792-.5312.87072-1.1965 1.67776-1.4746.39421-.1359 1.12491-.1848 2.19201-.1466v.8029c-.793-.0535-1.2877-.0268-1.4842.0803-.2947.16-.95997.3575-1.17949 1.8074s.0064 2.6365.7024 3.008c.23839.128.66019.2794 1.04989.1459.7488-.256 1.4535-1.1689 1.5072-1.7875.0542-.6276.0813-1.9805.0813-4.0586z" fill="#fff"/><path d="m28.4936 19.2284c-1.1946 5.752-6.2915 10.0739-12.3974 10.0739-6.993 0-12.66212-5.6691-12.66212-12.6621 0-4.3443 2.18784-8.17758 5.5216-10.45758-2.7088 2.2464-4.4336 5.63998-4.4336 9.43488 0 6.769 5.48732 12.256 12.25602 12.256 5.5123 0 10.1741-3.6387 11.7155-8.6451z" fill="url(#d)"/><path d="m16.0961 1.64453c-8.28159 0-14.99551 6.7136-14.99551 14.99517 0 8.2816 6.71392 14.9956 14.99551 14.9956 8.2816 0 14.9955-6.714 14.9955-14.9956 0-8.28157-6.7139-14.99517-14.9955-14.99517zm0 27.65757c-6.99295 0-12.66207-5.6691-12.66207-12.662 0-4.3444 2.18784-8.17765 5.5216-10.45765 2.10247-1.43998 4.59217-2.20872 7.14047-2.2048 6.993 0 12.6621 5.6688 12.6621 12.66205.0005.8695-.0882 1.7368-.2646 2.5882-1.1946 5.752-6.2916 10.0739-12.3975 10.0739z" fill="#fff"/></g></svg>