<svg fill="none" height="22" viewBox="0 0 22 22" width="22" xmlns="http://www.w3.org/2000/svg"><g stroke="#5a3d8b"><path d="m1 17c0-1.5404 0-2.3107.34673-2.8765.19401-.3166.4602-.5828.7768-.7768.56581-.3467 1.33603-.3467 2.87647-.3467s2.31066 0 2.87647.3467c.3166.194.58279.4602.7768.7768.34673.5658.34673 1.3361.34673 2.8765s0 2.3107-.34673 2.8765c-.19401.3166-.4602.5828-.7768.7768-.56581.3467-1.33603.3467-2.87647.3467s-2.31066 0-2.87647-.3467c-.3166-.194-.58279-.4602-.7768-.7768-.34673-.5658-.34673-1.3361-.34673-2.8765z"/><path d="m13 17c0-1.5404 0-2.3107.3467-2.8765.194-.3166.4602-.5828.7768-.7768.5658-.3467 1.3361-.3467 2.8765-.3467s2.3107 0 2.8765.3467c.3166.194.5828.4602.7768.7768.3467.5658.3467 1.3361.3467 2.8765s0 2.3107-.3467 2.8765c-.194.3166-.4602.5828-.7768.7768-.5658.3467-1.3361.3467-2.8765.3467s-2.3107 0-2.8765-.3467c-.3166-.194-.5828-.4602-.7768-.7768-.3467-.5658-.3467-1.3361-.3467-2.8765z"/><path d="m1 5c0-1.54044 0-2.31066.34673-2.87647.19401-.3166.4602-.58279.7768-.7768.56581-.34673 1.33603-.34673 2.87647-.34673s2.31066 0 2.87647.34673c.3166.19401.58279.4602.7768.7768.34673.56581.34673 1.33603.34673 2.87647s0 2.31066-.34673 2.87647c-.19401.3166-.4602.58279-.7768.7768-.56581.34673-1.33603.34673-2.87647.34673s-2.31066 0-2.87647-.34673c-.3166-.19401-.58279-.4602-.7768-.7768-.34673-.56581-.34673-1.33603-.34673-2.87647z"/><path d="m13 5c0-1.54044 0-2.31066.3467-2.87647.194-.3166.4602-.58279.7768-.7768.5658-.34673 1.3361-.34673 2.8765-.34673s2.3107 0 2.8765.34673c.3166.19401.5828.4602.7768.7768.3467.56581.3467 1.33603.3467 2.87647s0 2.31066-.3467 2.87647c-.194.3166-.4602.58279-.7768.7768-.5658.34673-1.3361.34673-2.8765.34673s-2.3107 0-2.8765-.34673c-.3166-.19401-.5828-.4602-.7768-.7768-.3467-.56581-.3467-1.33603-.3467-2.87647z"/></g></svg>