<svg fill="none" height="19" viewBox="0 0 20 19" width="20" xmlns="http://www.w3.org/2000/svg"><path clip-rule="evenodd" d="m17 .500448h-13c-.92826 0-1.8185.368748-2.47487 1.025122-.656381.65638-1.02513 1.54662-1.02513 2.47488v13.05695c0 1.067 1.056 1.744 1.985 1.422.133-.046.263-.113.387-.202l.175-.125c.42566-.302.93488-.4638 1.4568-.4629s1.03058.1645 1.4552.4679c.59604.4242 1.30943.6522 2.041.6522s1.44496-.228 2.041-.6522c.4246-.3034.9333-.467 1.4552-.4679s1.0311.1609 1.4568.4629l.175.125c.993.71 2.372 0 2.372-1.22v-7.55695h3.5c.1989 0 .3897-.07902.5303-.21967.1407-.14066.2197-.33142.2197-.53033v-5.5c0-.72935-.2897-1.42882-.8055-1.94455-.5157-.51572-1.2152-.805452-1.9445-.805452zm-1.25 7.500002v-4.75c0-.33152.1317-.64946.3661-.88388.2344-.23443.5524-.36612.8839-.36612s.6495.13169.8839.36612c.2344.23442.3661.55236.3661.88388v4.75zm-4.25 4.24995c0 .199-.079.3897-.2197.5304-.1406.1406-.3314.2196-.5303.2196h-6c-.19891 0-.38968-.079-.53033-.2196-.14065-.1407-.21967-.3314-.21967-.5304 0-.1989.07902-.3896.21967-.5303.14065-.1406.33142-.2197.53033-.2197h6c.1989 0 .3897.0791.5303.2197.1407.1407.2197.3314.2197.5303zm-1-2.99995c0 .19891-.079.38967-.2197.53033-.1406.14065-.33139.21962-.5303.21962h-5c-.19891 0-.38968-.07897-.53033-.21962-.14065-.14066-.21967-.33142-.21967-.53033 0-.19892.07902-.38968.21967-.53033.14065-.14066.33142-.21967.53033-.21967h5c.19891 0 .3897.07901.5303.21967.1407.14065.2197.33141.2197.53033zm.25-2.25c.1989 0 .3897-.07902.5303-.21967.1407-.14066.2197-.33142.2197-.53033 0-.19892-.079-.38968-.2197-.53033-.1406-.14066-.3314-.21967-.5303-.21967h-6c-.19891 0-.38968.07901-.53033.21967-.14065.14065-.21967.33141-.21967.53033 0 .19891.07902.38967.21967.53033.14065.14065.33142.21967.53033.21967z" fill="#555e67" fill-rule="evenodd"/></svg>