<svg fill="none" height="22" viewBox="0 0 20 22" width="20" xmlns="http://www.w3.org/2000/svg"><g stroke="#5a3d8b" stroke-linecap="round"><path d="m17.1737 11.9256v-.8056c0-1.47078 0-2.20617-.4503-2.66309-.4502-.45691-1.1749-.45691-2.6242-.45691h-8.19843c-1.4493 0-2.17395 0-2.62419.45691-.45024.45692-.45024 1.19231-.45024 2.66309v.8056c0 .3762 0 .5643-.03289.7483-.03289.1841-.09796.3602-.22811.7124l-.21722.5879c-1.17945 3.1918-1.769174 4.7877-1.005 5.9067.76418 1.1191 2.44372 1.1191 5.80279 1.1191h5.70819c3.3591 0 5.0386 0 5.8028-1.1191.7642-1.119.1744-2.7149-1.005-5.9067l-.2172-.5879c-.1302-.3522-.1953-.5283-.2282-.7124-.0328-.184-.0328-.3721-.0328-.7483z"/><path d="m14 10c0-6-2.1345-9-4-9-1.86551 0-4 3-4 9"/><path d="m10 15c1.2504 0 2.944 2.6278 1.3547 2.8954-.8319.14-1.88364.139-2.70944 0-1.58924-.2676.10433-2.8954 1.35474-2.8954z"/></g><path d="m3.25743 13.5714c-.23673-.1422-.54389-.0656-.68607.1712-.14217.2367-.06552.5439.17121.686zm13.99997.8572c.2368-.1421.3134-.4493.1712-.686-.1421-.2368-.4493-.3134-.686-.1712zm-5.323 1.0757c-.2737.0362-.4663.2875-.4301.5613.0362.2737.2875.4663.5613.4301zm-3.99998.9914c.27376.0362.52504-.1564.56126-.4301.03622-.2738-.15635-.5251-.4301-.5613zm4.13118 0c1.9222-.2543 3.3544-.9636 5.1918-2.0671l-.5148-.8572c-1.8013 1.0818-3.0917 1.7058-4.8082 1.9329zm-9.32303-2.0671c1.83739 1.1035 3.26967 1.8128 5.19185 2.0671l.13116-.9914c-1.71648-.2271-3.00687-.8511-4.80815-1.9329z" fill="#5a3d8b"/></svg>