<svg width="18" height="20" viewBox="0 0 18 20" fill="none" xmlns="http://www.w3.org/2000/svg">
<path fill-rule="evenodd" clip-rule="evenodd" d="M2.83084 7.16797C2.83084 3.75411 5.60448 0.980469 9.01834 0.980469C12.423 0.980469 15.2058 3.76327 15.2058 7.16797V9.81714C15.2058 10.0141 15.2504 10.3024 15.3349 10.6104C15.4184 10.9147 15.5261 11.1852 15.6243 11.3569L16.6754 13.1026C17.5055 14.4861 16.8419 16.2883 15.3127 16.7945C11.2207 18.1614 6.8057 18.1613 2.71381 16.7942L2.71126 16.7933C1.93905 16.532 1.35994 15.9916 1.10101 15.2923C0.841785 14.5922 0.929969 13.8042 1.35259 13.1019L2.40531 11.3534C2.40555 11.353 2.40578 11.3526 2.40601 11.3523C2.50639 11.1835 2.61635 10.914 2.7012 10.6083C2.78631 10.3017 2.83084 10.0139 2.83084 9.81714V7.16797ZM9.01834 2.35547C6.36387 2.35547 4.20584 4.5135 4.20584 7.16797V9.81714C4.20584 10.1796 4.1312 10.5975 4.0261 10.9761C3.92094 11.3549 3.76996 11.7495 3.58636 12.0575L3.58483 12.0601L2.53076 13.8108C2.53072 13.8108 2.53079 13.8107 2.53076 13.8108C2.30264 14.19 2.28991 14.5433 2.39046 14.8149C2.49122 15.087 2.73215 15.3484 3.15086 15.4905C6.95992 16.7628 11.069 16.7627 14.878 15.4901L14.8801 15.4894C15.5682 15.2619 15.8759 14.4433 15.4966 13.8105C15.4965 13.8103 15.4967 13.8107 15.4966 13.8105L14.4361 12.0491C14.26 11.7439 14.1125 11.352 14.0089 10.9741C13.9054 10.5969 13.8308 10.1793 13.8308 9.81714V7.16797C13.8308 4.52266 11.6636 2.35547 9.01834 2.35547Z" fill="#1C1C1C"/>
<path fill-rule="evenodd" clip-rule="evenodd" d="M6.68242 1.68247C7.04858 0.748129 7.95764 0.0908203 9.01836 0.0908203C10.0791 0.0908203 10.9881 0.74813 11.3543 1.68247C11.4499 1.92637 11.3985 2.20339 11.2219 2.39686C11.0453 2.59032 10.7741 2.6666 10.5225 2.59356C10.2682 2.51973 10.0116 2.46402 9.75146 2.43249L9.74892 2.43218C8.95654 2.33313 8.20784 2.39192 7.51443 2.59349C7.26285 2.66663 6.99156 2.59041 6.81487 2.39694C6.63819 2.20348 6.58682 1.92641 6.68242 1.68247Z" fill="#1C1C1C"/>
<path fill-rule="evenodd" clip-rule="evenodd" d="M6.95581 16.4717C6.95581 17.0332 7.18938 17.5571 7.56111 17.9289C7.93284 18.3006 8.45684 18.5342 9.01831 18.5342C10.1511 18.5342 11.0808 17.6045 11.0808 16.4717H12.4558C12.4558 18.3639 10.9105 19.9092 9.01831 19.9092C8.07645 19.9092 7.20711 19.5194 6.58884 18.9011C5.97057 18.2829 5.58081 17.4135 5.58081 16.4717H6.95581Z" fill="#1C1C1C"/>
</svg>
