<svg fill="none" height="20" viewBox="0 0 20 20" width="20" xmlns="http://www.w3.org/2000/svg"><g fill="#1b609d"><path d="m10 2c-4.42 0-8 3.58-8 8 0 1.95.7 3.73 1.86 5.12 1.69-1.32 3.82-2.12 6.14-2.12s4.45.8 6.14 2.12c1.16-1.39 1.86-3.17 1.86-5.12 0-4.42-3.58-8-8-8zm0 9c-1.93 0-3.5-1.57-3.5-3.5s1.57-3.5 3.5-3.5 3.5 1.57 3.5 3.5-1.57 3.5-3.5 3.5z" opacity=".3"/><path d="m10 0c-5.52 0-10 4.48-10 10s4.48 10 10 10 10-4.48 10-10-4.48-10-10-10zm0 18c-1.74 0-3.34-.56-4.65-1.5 1.31-.94 2.91-1.5 4.65-1.5s3.34.56 4.65 1.5c-1.31.94-2.91 1.5-4.65 1.5zm6.14-2.88c-1.69-1.32-3.82-2.12-6.14-2.12s-4.45.8-6.14 2.12c-1.16-1.39-1.86-3.17-1.86-5.12 0-4.42 3.58-8 8-8s8 3.58 8 8c0 1.95-.7 3.73-1.86 5.12z"/><path d="m10 3.92969c-1.93 0-3.5 1.57-3.5 3.5s1.57 3.50001 3.5 3.50001 3.5-1.57001 3.5-3.50001-1.57-3.5-3.5-3.5zm0 5c-.83 0-1.5-.67-1.5-1.5s.67-1.5 1.5-1.5 1.5.67 1.5 1.5-.67 1.5-1.5 1.5z"/></g></svg>