<svg fill="none" height="22" viewBox="0 0 20 22" width="20" xmlns="http://www.w3.org/2000/svg"><g stroke="#5a3d8b" stroke-linejoin="round"><path d="m2 10v4c0 3.2998 0 4.9497 1.02513 5.9749 1.02512 1.0251 2.67504 1.0251 5.97487 1.0251h2c3.2998 0 4.9497 0 5.9749-1.0251 1.0251-1.0252 1.0251-2.6751 1.0251-5.9749v-4" stroke-linecap="round"/><path d="m1 8c0-.74769 0-1.12154.20096-1.4.13165-.18242.32101-.33391.54904-.43923.34808-.16077.81538-.16077 1.75-.16077h13c.9346 0 1.4019 0 1.75.16077.228.10532.4174.25681.549.43923.201.27846.201.65231.201 1.4s0 1.12154-.201 1.4c-.1316.18242-.321.33391-.549.43923-.3481.16077-.8154.16077-1.75.16077h-13c-.93462 0-1.40192 0-1.75-.16077-.22803-.10532-.41739-.25681-.54904-.43923-.20096-.27846-.20096-.65231-.20096-1.4z"/><path d="m4 2.78571c0-.98622.79949-1.78571 1.78571-1.78571h.35715c2.13024 0 3.85714 1.7269 3.85714 3.85714v1.14286h-2.78571c-1.77521 0-3.21429-1.43909-3.21429-3.21429z"/><path d="m16 2.78571c0-.98622-.7995-1.78571-1.7857-1.78571h-.3572c-2.1302 0-3.8571 1.7269-3.8571 3.85714v1.14286h2.7857c1.7752 0 3.2143-1.43909 3.2143-3.21429z"/><path d="m10 10v11" stroke-linecap="round"/></g></svg>