<svg fill="none" height="22" viewBox="0 0 22 22" width="22" xmlns="http://www.w3.org/2000/svg"><g stroke="#5a3d8b"><path d="m16 3c0-.94281 0-1.41421.2929-1.70711.2929-.29289.7643-.29289 1.7071-.29289h1c.9428 0 1.4142 0 1.7071.29289.2929.2929.2929.7643.2929 1.70711v1c0 .94281 0 1.41421-.2929 1.70711-.2929.29289-.7643.29289-1.7071.29289h-1c-.9428 0-1.4142 0-1.7071-.29289-.2929-.2929-.2929-.7643-.2929-1.70711z"/><path d="m8.5 10.5c0-.94281 0-1.41421.29289-1.70711.2929-.29289.7643-.29289 1.70711-.29289h1c.9428 0 1.4142 0 1.7071.29289.2929.2929.2929.7643.2929 1.70711v1c0 .9428 0 1.4142-.2929 1.7071s-.7643.2929-1.7071.2929h-1c-.94281 0-1.41421 0-1.70711-.2929-.29289-.2929-.29289-.7643-.29289-1.7071z"/><path d="m16 18c0-.9428 0-1.4142.2929-1.7071s.7643-.2929 1.7071-.2929h1c.9428 0 1.4142 0 1.7071.2929s.2929.7643.2929 1.7071v1c0 .9428 0 1.4142-.2929 1.7071s-.7643.2929-1.7071.2929h-1c-.9428 0-1.4142 0-1.7071-.2929s-.2929-.7643-.2929-1.7071z"/><path d="m1 18c0-.9428 0-1.4142.29289-1.7071.2929-.2929.7643-.2929 1.70711-.2929h1c.94281 0 1.41421 0 1.70711.2929.29289.2929.29289.7643.29289 1.7071v1c0 .9428 0 1.4142-.29289 1.7071-.2929.2929-.7643.2929-1.70711.2929h-1c-.94281 0-1.41421 0-1.70711-.2929-.29289-.2929-.29289-.7643-.29289-1.7071z"/><path d="m1 3c0-.94281 0-1.41421.29289-1.70711.2929-.29289.7643-.29289 1.70711-.29289h1c.94281 0 1.41421 0 1.70711.29289.29289.2929.29289.7643.29289 1.70711v1c0 .94281 0 1.41421-.29289 1.70711-.2929.29289-.7643.29289-1.70711.29289h-1c-.94281 0-1.41421 0-1.70711-.29289-.29289-.2929-.29289-.7643-.29289-1.70711z"/><path d="m3.5 12v-5.95455m6.5-2.54545h6m2.5 6.5v6m-4-1.5-1-1" stroke-linecap="round" stroke-linejoin="round"/></g></svg>