<svg fill="none" height="20" viewBox="0 0 18 20" width="18" xmlns="http://www.w3.org/2000/svg"><path d="m15 14.078c-.76 0-1.44.3-1.96.77l-7.13-4.15c.05-.23.09-.46.09-.69995 0-.24-.04-.47-.09-.7l7.05-4.11c.54.5 1.25.81 2.04.81 1.66 0 3-1.34 3-3s-1.34-3.00000312-3-3.00000312-3 1.34000312-3 3.00000312c0 .24.04.47.09.7l-7.05 4.11c-.54-.5-1.25-.81-2.04-.81-1.66 0-3 1.34-3 3 0 1.65995 1.34 2.99995 3 2.99995.79 0 1.5-.31 2.04-.81l7.12 4.16c-.05.2101-.08.43-.08.65 0 1.61 1.31 2.92 2.92 2.92s2.92-1.31 2.92-2.92-1.31-2.92-2.92-2.92zm0-12.07995c.55 0 1 .45 1 1s-.45 1-1 1-1-.45-1-1 .45-1 1-1zm-12 8.99995c-.55 0-1-.45-1-.99995 0-.55.45-1 1-1s1 .45 1 1c0 .54995-.45.99995-1 .99995zm12 7.02c-.55 0-1-.4499-1-1 0-.5499.45-1 1-1s1 .4501 1 1c0 .5501-.45 1-1 1z" fill="#5a3d8b"/></svg>