<svg fill="none" height="24" viewBox="0 0 24 24" width="24" xmlns="http://www.w3.org/2000/svg"><g stroke="#5a3d8b" stroke-linecap="round"><path d="m2.9668 10.4961v5.0018c0 2.8294 0 4.2441.87868 5.1231.87868.8791 2.29289.8791 5.12132.8791h6c2.8284 0 4.2426 0 5.1213-.8791.8787-.879.8787-2.2937.8787-5.1231v-5.0018"/><path d="m14.9668 16.9932c-.6841.6072-1.7732 1-3 1s-2.31591-.3928-3-1"/><path d="m10.1038 8.41897c-.28198 1.0184-1.30752 2.77513-3.25603 3.02973-1.72044.2248-3.02531-.5262-3.35861-.8402-.36748-.2546-1.205-1.06929-1.4101-1.57849-.20511-.5092.03418-1.61246.2051-2.06226l.68327-1.97838c.1668-.49692.55727-1.67222.95758-2.06975.40032-.39753 1.2108-.41483 1.54439-.41483h7.0055c1.8032.02548 5.746-.01608 6.5254.00001.7794.01608 1.2478.66942 1.3845.94948 1.1629 2.81682 1.6152 4.43003 1.6152 5.11745-.1518.73332-.78 2.11607-2.9997 2.72427-2.307.632-3.6149-.5974-4.0252-1.0694m-5.81988 0c.32475.3989 1.34348 1.2018 2.82018 1.2221 1.4768.0204 2.7519-1.0099 3.2048-1.52759.1282-.15276.4051-.60595.6923-1.50214" stroke-linejoin="round"/></g></svg>