<svg fill="none" height="22" viewBox="0 0 20 22" width="20" xmlns="http://www.w3.org/2000/svg"><g stroke="#5a3d8b" stroke-linecap="round" stroke-linejoin="round"><path d="m6.64298 2.14559-1.70482.78803c-2.62544 1.21357-3.93816 1.82035-3.93816 2.81638s1.31272 1.60281 3.93817 2.81638l1.70481.78803c1.65226.76369 2.47839 1.14559 3.35702 1.14559.8786 0 1.7048-.3819 3.357-1.14559l1.7048-.78803c2.6255-1.21357 3.9382-1.82035 3.9382-2.81638s-1.3127-1.60281-3.9382-2.81638l-1.7048-.78803c-1.6522-.76373-2.4784-1.14559-3.357-1.14559-.87863 0-1.70476.38186-3.35702 1.14559z"/><path d="m18.788 10.0973c.1413.1987.212.4059.212.6337 0 .9819-1.3127 1.58-3.9382 2.7763l-1.7048.7768c-1.6522.7528-2.4784 1.1293-3.357 1.1293-.87863 0-1.70476-.3765-3.35702-1.1293l-1.70481-.7768c-2.62545-1.1963-3.93817-1.7944-3.93817-2.7763 0-.2278.07067-.435.212-.6337"/><path d="m18.3767 15.2661c.4155.331.6233.6609.6233 1.0515 0 .9819-1.3127 1.58-3.9382 2.7763l-1.7048.7768c-1.6522.7529-2.4784 1.1293-3.357 1.1293-.87863 0-1.70476-.3764-3.35702-1.1293l-1.70481-.7768c-2.62545-1.1963-3.93817-1.7944-3.93817-2.7763 0-.3906.20778-.7205.62334-1.0515"/></g></svg>