<svg width="21" height="20" viewBox="0 0 21 20" fill="none" xmlns="http://www.w3.org/2000/svg">
<path d="M9.31505 5.06668C9.60471 5.02187 9.89735 4.99959 10.1904 5.00001C12.8164 5.00001 15.2854 6.90834 16.7223 10C16.5026 10.4705 16.2544 10.9269 15.9791 11.3667C15.8917 11.5032 15.8458 11.6625 15.847 11.825C15.8488 12.0069 15.9096 12.1831 16.0199 12.3269C16.1303 12.4707 16.2843 12.5741 16.4583 12.6213C16.6324 12.6685 16.817 12.6569 16.9839 12.5884C17.1508 12.5199 17.291 12.3981 17.3829 12.2417C17.7677 11.6316 18.1019 10.9906 18.3821 10.325C18.4264 10.221 18.4493 10.109 18.4493 9.99584C18.4493 9.88266 18.4264 9.77066 18.3821 9.66668C16.714 5.75835 13.5761 3.33335 10.1904 3.33335C9.80282 3.33137 9.41587 3.36484 9.03429 3.43335C8.92585 3.45195 8.8221 3.49193 8.72896 3.55099C8.63583 3.61006 8.55514 3.68706 8.49149 3.7776C8.42785 3.86813 8.3825 3.97043 8.35803 4.07866C8.33356 4.18688 8.33046 4.29891 8.34889 4.40835C8.36733 4.51778 8.40694 4.62248 8.46547 4.71646C8.524 4.81045 8.60031 4.89188 8.69002 4.95611C8.77974 5.02033 8.88111 5.0661 8.98836 5.09079C9.0956 5.11548 9.20661 5.11862 9.31505 5.10001V5.06668ZM3.34466 1.90835C3.26767 1.83065 3.17626 1.76901 3.07566 1.72696C2.97507 1.68491 2.86725 1.66327 2.75836 1.66327C2.64947 1.66327 2.54165 1.68491 2.44105 1.72696C2.34045 1.76901 2.24905 1.83065 2.17205 1.90835C2.01656 2.06527 1.9292 2.27809 1.9292 2.50001C1.9292 2.72193 2.01656 2.93476 2.17205 3.09168L4.73197 5.66668C3.56397 6.80129 2.63437 8.16167 1.99864 9.66668C1.95317 9.77182 1.9297 9.8853 1.9297 10C1.9297 10.1147 1.95317 10.2282 1.99864 10.3333C3.66672 14.2417 6.80468 16.6667 10.1904 16.6667C11.6744 16.6563 13.1234 16.2104 14.3606 15.3833L17.0361 18.0917C17.1129 18.1698 17.2042 18.2318 17.3048 18.2741C17.4055 18.3164 17.5134 18.3382 17.6224 18.3382C17.7314 18.3382 17.8394 18.3164 17.94 18.2741C18.0406 18.2318 18.1319 18.1698 18.2087 18.0917C18.2861 18.0142 18.3475 17.922 18.3895 17.8205C18.4314 17.7189 18.453 17.61 18.453 17.5C18.453 17.39 18.4314 17.2811 18.3895 17.1795C18.3475 17.078 18.2861 16.9858 18.2087 16.9083L3.34466 1.90835ZM8.59663 9.56668L10.6198 11.6083C10.4802 11.6487 10.3356 11.6684 10.1904 11.6667C9.75236 11.6667 9.33228 11.4911 9.02255 11.1785C8.71282 10.866 8.53882 10.442 8.53882 10C8.53713 9.8535 8.5566 9.70752 8.59663 9.56668ZM10.1904 15C7.5644 15 5.09532 13.0917 3.66672 10C4.20024 8.81147 4.95747 7.73883 5.89632 6.84168L7.35796 8.33334C7.01463 8.96568 6.88374 9.6933 6.98492 10.4071C7.08609 11.1208 7.41387 11.7822 7.9191 12.2921C8.42432 12.8019 9.07973 13.1327 9.78702 13.2348C10.4943 13.3369 11.2153 13.2048 11.8419 12.8583L13.1549 14.1667C12.2557 14.7007 11.2337 14.988 10.1904 15Z" fill="white"/>
</svg>
