<svg fill="none" height="20" viewBox="0 0 22 20" width="22" xmlns="http://www.w3.org/2000/svg"><g stroke="#5a3d8b"><path d="m15 12.2192c0 .8285.6716 1.5 1.5 1.5s1.5-.6715 1.5-1.5c0-.8284-.6716-1.5-1.5-1.5s-1.5.6716-1.5 1.5z"/><path d="m9 5.21924h6c2.8284 0 4.2426 0 5.1213.87868s.8787 2.29289.8787 5.12128v2c0 2.8285 0 4.2427-.8787 5.1214-.8787.8786-2.2929.8786-5.1213.8786h-6c-3.77124 0-5.65685 0-6.82843-1.1715-1.17157-1.1716-1.17157-3.0572-1.17157-6.8285v-1.99996c0-3.77124 0-5.65686 1.17157-6.82843 1.17158-1.17157 3.05719-1.17157 6.82843-1.17157h4c.93 0 1.395 0 1.7765.10222 1.0352.2774 1.8439 1.08605 2.1213 2.12132.1022.3815.1022.84649.1022 1.77646" stroke-linecap="round"/></g></svg>