<svg fill="none" height="16" viewBox="0 0 21 16" width="21" xmlns="http://www.w3.org/2000/svg"><path d="m19.9235 7.6c-2.02-4.69-5.82-7.6-9.92-7.6-4.10002 0-7.90002 2.91-9.9200152 7.6-.0550633.12617-.0834848.26234-.0834848.4s.0284215.27383.0834848.4c2.0199952 4.69 5.8199952 7.6 9.9200152 7.6 4.1 0 7.9-2.91 9.92-7.6.055-.12617.0835-.26234.0835-.4s-.0285-.27383-.0835-.4zm-9.92 6.4c-3.17002 0-6.17002-2.29-7.90002-6 1.73-3.71 4.73-6 7.90002-6 3.17 0 6.17 2.29 7.9 6-1.73 3.71-4.73 6-7.9 6zm0-10c-.79114 0-1.5645.2346-2.2223.67412-.65779.43953-1.17048 1.06424-1.47323 1.79515-.30275.7309-.38197 1.53517-.22763 2.31109s.53531 1.48864 1.09472 2.04804 1.27214.9404 2.04806 1.0947c.77593.1544 1.58018.0752 2.31108-.2276.7309-.3027 1.3556-.8154 1.7952-1.4732.4395-.65782.6741-1.43117.6741-2.2223 0-1.06087-.4214-2.07828-1.1716-2.82843-.7501-.75014-1.7675-1.17157-2.8284-1.17157zm0 6c-.39558 0-.78226-.1173-1.11116-.33706-.32889-.21976-.58524-.53212-.73661-.89757-.15138-.36546-.19099-.76759-.11382-1.15555s.26766-.74433.54736-1.02403c.27971-.27971.63607-.47019 1.02403-.54736.388-.07717.7901-.03756 1.1556.11381.3654.15138.6778.40772.8975.73662.2198.3289.3371.71558.3371 1.11114 0 .53043-.2107 1.03914-.5858 1.41421-.3751.37508-.8838.58579-1.4142.58579z" fill="#fff"/></svg>